# xmcd
#
# Track frame offsets: 
#        150
#        13800
#        30145
#        44355
#        56617
#        69015
#        82162
#        95535
#        109197
#        123047
#
# Disc length: 1813 seconds
#
# Revision: 3
# Processed by: cddbd v1.5.2PL0 Copyright (c) Steve Scherf et al.
# Submitted via: ExactAudioCopy v1.1
#
DISCID=7407130a
DTITLE=Buck Owens - Kickin' In
DYEAR=1991
DGENRE=Country
TTITLE0=Kickin' In
TTITLE1=They'd Have To Carry Me Away
TTITLE2=Forever Yours
TTITLE3=On The Wings Of Love
TTITLE4=We're Gonna Build A Fire
TTITLE5=Never, Never Land
TTITLE6=Twice The Speed Of Love
TTITLE7=You And Me
TTITLE8=All The Tea In China
TTITLE9=Did Anybody Get The License Number
EXTD=
EXTT0=
EXTT1=
EXTT2=
EXTT3=
EXTT4=
EXTT5=
EXTT6=
EXTT7=
EXTT8=
EXTT9=
PLAYORDER=
